<?xml version="1.0" encoding="UTF-8" standalone="no"?>
<svg id="svg2" xmlns:rdf="http://www.w3.org/1999/02/22-rdf-syntax-ns#" xmlns="http://www.w3.org/2000/svg" xmlns:osb="http://www.openswatchbook.org/uri/2009/osb" xml:space="preserve" height="600" width="900" version="1.1" xmlns:cc="http://creativecommons.org/ns#" xmlns:dc="http://purl.org/dc/elements/1.1/"><title id="title2998">PROJECT M.A.S.K.</title><metadata id="metadata8"><rdf:RDF><cc:Work rdf:about=""><dc:format>image/svg+xml</dc:format><dc:type rdf:resource="http://purl.org/dc/dcmitype/StillImage"/><dc:title>PROJECT M.A.S.K.</dc:title><dc:date>01/01/2016</dc:date><dc:creator><cc:Agent><dc:title>Adriano Freitas</dc:title></cc:Agent></dc:creator><dc:language>en-US</dc:language><dc:subject><rdf:Bag/></dc:subject><cc:license rdf:resource=""/></cc:Work></rdf:RDF></metadata><g id="g10" transform="matrix(1.25,0,0,-1.25,0,600)"><path id="path12" d="m0 0h720v480h-720v-480z" fill="#18bc9c"/><g id="g4185" transform="translate(-.51875 -120.15)"><path id="path3002-3-2" d="m361.07 155.37-1.07 409.86c-84.238 0-179.14-65.233-179.14-152.54v-104.58c0-74.352 91.397-48.968 90.908-106.84-0.24236-10.953 2.6871-26.17 8.7884-32.368z" fill="#fafafa"/><g id="g4173" transform="translate(-40.9 96.895)"><path id="path3010" fill="#262e33" d="m326.22 246.12c-27.931 0-50.653 22.728-50.653 50.653 0 27.931 22.723 50.658 50.653 50.658 27.931 0 50.658-22.728 50.658-50.658 0-27.926-22.728-50.653-50.658-50.653z"/><path id="path3002-3" d="m400.9 58.174v409.87c84.238 0 180.17-65.233 180.17-152.54v-104.58c0-74.352-91.397-48.968-90.908-106.84 0.24236-10.953-2.6871-26.17-8.7884-32.368z" fill="#1d2226"/><g id="g4184" opacity=".25" transform="translate(-.085772 -144.86)" fill="#fff"><rect id="rect2999-7-2" transform="matrix(.5 -.86603 -.86603 -.5 0 0)" height="28.003" width="10.32" y="-518.41" x="-9.7568"/><rect id="rect2999-7-2-1" transform="matrix(.5 -.86603 -.86603 -.5 0 0)" height="28.003" width="10.32" y="-536.47" x="-40.68"/></g><path id="path3014" fill="#262e33" d="m488.32 246.12c-27.931 0-50.653 22.728-50.653 50.653 0 27.931 22.723 50.658 50.653 50.658 27.931 0 50.659-22.728 50.659-50.658 0-27.926-22.728-50.653-50.659-50.653z"/><g id="g4180" opacity=".25" transform="translate(0,-145.6)" fill="#1d2226"><rect id="rect2999-7-2-7" transform="rotate(240)" height="28.003" width="10.32" y="175.65" x="-411.68"/><rect id="rect2999-7-2-1-5" transform="rotate(240)" height="28.003" width="10.32" y="157.58" x="-442.6"/></g></g></g></g></svg>
